<?xml version="1.0" encoding="UTF-8"?>
<svg xmlns="http://www.w3.org/2000/svg" viewBox="55 200 2465 690">
<path d="M2515.15,880.87 L2515.14,615.71 L2514.98,614.90 L2513.93,614.51 L2442.78,614.47 L2442.36,614.75 L2441.39,619.20 L2410.00,803.42 L2409.53,805.23 L2408.77,805.82 L2408.03,805.69 L2407.59,804.78 L2407.27,801.51 L2375.20,614.88 L2374.84,614.59 L2373.98,614.51 L2302.63,614.68 L2302.33,615.72 L2302.40,881.08 L2303.09,881.41 L2345.89,881.45 L2346.46,881.11 L2346.41,680.29 L2346.64,679.22 L2347.43,678.67 L2348.38,680.03 L2350.06,688.49 L2385.55,881.03 L2386.73,881.42 L2426.97,881.42 L2427.87,881.29 L2428.27,880.82 L2463.61,688.65 L2465.37,679.83 L2466.25,678.68 L2467.02,679.21 L2467.26,680.29 L2467.21,881.11 L2467.78,881.45 L2513.97,881.42 L2514.83,881.29 L2515.15,880.87 Z M2192.32,885.22 L2205.62,884.32 L2211.59,883.45 L2221.55,881.26 L2232.50,877.22 L2241.24,872.33 L2245.26,869.36 L2249.73,865.38 L2255.27,859.09 L2257.33,856.17 L2260.31,850.99 L2262.30,846.66 L2264.28,840.92 L2266.31,831.60 L2267.13,823.31 L2267.32,817.33 L2267.12,672.35 L2266.27,664.06 L2265.28,658.80 L2263.29,651.94 L2260.31,644.98 L2256.34,638.35 L2252.33,633.27 L2247.35,628.30 L2242.28,624.33 L2237.80,621.47 L2229.84,617.56 L2223.55,615.32 L2216.58,613.42 L2208.28,612.00 L2199.97,611.14 L2188.67,610.79 L2176.70,611.27 L2166.73,612.54 L2162.37,613.39 L2152.21,616.38 L2143.11,620.35 L2135.21,625.32 L2128.39,631.29 L2125.39,634.59 L2122.35,638.56 L2119.35,643.41 L2117.37,647.43 L2114.39,655.68 L2112.38,665.39 L2111.63,675.35 L2111.63,819.99 L2112.28,829.62 L2113.39,836.30 L2115.39,843.54 L2118.36,850.61 L2121.34,855.86 L2124.34,860.08 L2129.11,865.38 L2133.58,869.35 L2139.17,873.33 L2144.51,876.31 L2148.82,878.28 L2157.11,881.20 L2164.74,883.00 L2173.38,884.34 L2184.02,885.14 L2192.32,885.22 Z M2189.33,847.74 L2180.58,846.91 L2175.01,845.03 L2171.09,842.71 L2167.85,839.59 L2165.65,836.33 L2163.66,831.45 L2162.69,826.72 L2162.40,820.01 L2162.40,675.66 L2162.60,669.95 L2163.65,664.55 L2165.71,659.47 L2169.05,655.09 L2173.46,651.66 L2178.44,649.62 L2182.95,648.58 L2189.67,648.25 L2195.72,648.56 L2200.41,649.62 L2205.34,651.65 L2208.35,653.69 L2210.77,656.07 L2212.97,659.13 L2215.03,663.87 L2216.06,668.38 L2216.41,675.32 L2216.41,821.01 L2216.13,827.05 L2215.02,832.13 L2212.91,836.87 L2209.77,840.95 L2205.88,843.98 L2201.34,846.04 L2197.52,847.06 L2189.33,847.74 Z M2009.99,885.23 L2024.28,884.23 L2035.91,882.15 L2042.11,880.29 L2049.83,877.24 L2056.87,873.33 L2063.40,868.39 L2068.37,863.48 L2073.27,857.11 L2076.31,851.84 L2079.25,844.87 L2081.21,837.91 L2082.28,831.95 L2083.04,821.32 L2083.05,783.10 L2082.73,782.49 L2081.96,782.32 L2035.46,782.40 L2035.16,783.09 L2034.99,826.37 L2034.09,831.76 L2033.06,834.82 L2032.01,836.98 L2029.98,839.93 L2027.93,842.02 L2025.23,844.01 L2020.83,846.04 L2017.07,847.06 L2008.67,847.74 L2000.89,847.06 L1997.10,846.04 L1992.46,843.88 L1989.90,841.97 L1987.68,839.62 L1985.64,836.48 L1983.67,831.09 L1982.84,823.35 L1982.84,672.98 L1983.56,665.59 L1984.62,661.86 L1985.72,659.47 L1987.72,656.41 L1991.43,652.81 L1995.50,650.57 L1998.03,649.62 L2002.28,648.63 L2008.67,648.24 L2015.72,648.64 L2019.91,649.62 L2022.49,650.59 L2024.87,651.78 L2027.63,653.69 L2029.97,656.08 L2032.03,659.15 L2034.04,664.22 L2034.76,668.28 L2035.16,674.32 L2035.16,703.28 L2035.34,703.95 L2035.76,704.16 L2081.95,704.12 L2082.70,703.92 L2083.07,702.93 L2083.03,674.68 L2082.39,665.05 L2081.28,658.32 L2079.29,651.20 L2077.28,646.17 L2074.32,640.51 L2070.18,634.58 L2066.33,630.28 L2060.75,625.36 L2054.80,621.34 L2049.17,618.40 L2043.86,616.28 L2037.99,614.39 L2029.93,612.54 L2020.96,611.34 L2011.99,610.88 L2003.34,610.86 L1994.37,611.32 L1984.74,612.63 L1974.12,615.29 L1965.84,618.46 L1957.19,623.34 L1953.25,626.26 L1949.62,629.51 L1944.31,635.38 L1941.38,639.55 L1939.35,643.06 L1937.40,647.16 L1935.38,652.60 L1933.36,660.74 L1932.40,667.85 L1932.20,672.34 L1932.36,827.64 L1933.38,835.26 L1934.40,839.90 L1936.37,846.23 L1939.36,852.90 L1942.33,857.82 L1946.37,863.07 L1951.60,868.31 L1956.56,872.20 L1961.65,875.32 L1967.49,878.20 L1973.01,880.29 L1979.43,882.21 L1990.72,884.21 L1999.69,884.99 L2009.99,885.23 Z M1899.34,880.90 L1899.34,842.73 L1899.04,841.74 L1850.63,841.74 L1850.33,842.73 L1850.32,880.60 L1850.57,881.27 L1898.63,881.41 L1899.12,881.31 L1899.34,880.90 Z M1725.65,885.24 L1730.41,884.94 L1744.92,882.55 L1759.56,879.09 L1772.52,874.76 L1783.82,869.76 L1792.46,865.03 L1797.65,861.67 L1806.08,855.33 L1811.66,850.38 L1816.70,845.31 L1824.96,835.43 L1832.73,823.47 L1838.00,812.84 L1841.73,803.53 L1843.50,798.22 L1847.24,783.59 L1847.85,778.93 L1848.94,774.37 L1849.31,767.99 L1849.43,724.67 L1848.94,711.55 L1847.94,707.32 L1847.22,702.08 L1843.48,686.78 L1839.85,675.80 L1836.11,666.49 L1832.69,659.18 L1827.46,649.54 L1821.33,639.89 L1814.02,629.76 L1803.13,616.60 L1796.04,608.82 L1766.61,579.62 L1750.40,564.90 L1721.40,540.01 L1710.08,529.62 L1699.78,519.61 L1692.51,511.60 L1684.99,502.58 L1679.26,494.90 L1674.09,487.21 L1666.87,474.51 L1662.68,464.81 L1659.11,453.77 L1657.28,446.08 L1655.31,433.04 L1654.70,423.68 L1654.77,415.31 L1656.23,401.58 L1659.70,390.51 L1663.83,382.45 L1667.03,378.27 L1670.40,374.95 L1673.78,372.41 L1677.16,370.52 L1681.54,368.78 L1686.94,367.35 L1698.01,367.03 L1702.72,367.43 L1711.76,368.88 L1720.13,371.39 L1726.51,374.03 L1729.88,375.95 L1734.57,379.07 L1737.94,381.79 L1741.98,386.30 L1744.49,389.79 L1747.77,395.83 L1749.89,400.86 L1751.99,407.23 L1753.88,415.94 L1755.18,432.65 L1755.34,460.96 L1755.51,461.83 L1756.12,462.66 L1758.42,463.49 L1835.70,469.52 L1847.31,470.69 L1848.49,470.42 L1848.87,470.12 L1849.19,467.64 L1849.03,437.01 L1848.69,431.03 L1847.21,417.39 L1845.28,406.08 L1843.42,397.77 L1839.73,385.13 L1834.16,371.16 L1831.27,365.18 L1826.86,357.20 L1822.49,350.22 L1817.16,342.91 L1806.22,329.94 L1796.40,320.30 L1784.10,310.31 L1776.70,305.34 L1768.14,300.26 L1752.05,292.37 L1743.86,289.15 L1733.64,285.72 L1716.24,280.77 L1698.27,277.20 L1682.63,275.11 L1668.65,274.16 L1658.68,274.10 L1644.40,275.22 L1630.45,278.52 L1622.49,281.47 L1612.53,286.25 L1605.56,290.57 L1602.25,292.97 L1595.30,298.95 L1585.16,310.58 L1578.24,320.22 L1575.07,325.53 L1571.45,332.49 L1564.25,352.45 L1560.96,364.75 L1559.14,374.72 L1556.83,395.70 L1556.17,415.33 L1556.75,436.98 L1557.45,444.62 L1559.02,455.94 L1561.40,468.92 L1563.51,477.56 L1567.17,489.54 L1572.86,504.51 L1576.69,513.11 L1582.22,523.47 L1590.67,536.92 L1598.00,547.09 L1605.28,556.41 L1616.00,569.07 L1623.26,577.06 L1635.28,589.24 L1655.59,607.19 L1690.81,636.70 L1701.95,647.20 L1716.34,662.40 L1723.88,671.08 L1731.66,680.88 L1737.20,689.13 L1742.45,698.83 L1746.06,707.53 L1748.06,713.55 L1749.82,720.24 L1751.57,729.28 L1752.77,741.31 L1753.03,748.00 L1752.82,756.36 L1751.77,766.40 L1749.85,774.78 L1748.06,779.83 L1744.39,786.88 L1742.20,789.92 L1739.44,792.95 L1736.45,795.65 L1731.54,799.11 L1724.15,802.61 L1719.43,804.07 L1708.37,805.89 L1702.34,806.13 L1695.63,805.93 L1683.91,804.09 L1679.19,802.59 L1674.82,800.74 L1670.45,798.22 L1666.40,795.21 L1662.70,791.53 L1659.19,786.88 L1655.67,780.50 L1653.88,775.79 L1651.69,767.74 L1650.48,757.36 L1650.27,752.01 L1650.34,712.76 L1649.72,711.59 L1647.94,711.07 L1560.06,710.78 L1558.23,711.36 L1557.81,711.85 L1557.62,712.71 L1558.17,758.31 L1560.17,777.28 L1562.17,787.91 L1565.81,801.54 L1571.47,816.17 L1576.75,826.47 L1580.26,832.11 L1585.31,839.17 L1594.29,849.42 L1602.58,856.91 L1613.55,864.76 L1622.73,869.98 L1633.48,874.78 L1646.44,879.10 L1660.41,882.50 L1664.73,883.04 L1672.59,884.60 L1679.68,885.25 L1725.65,885.24 Z M1391.65,885.24 L1396.25,884.94 L1410.59,882.52 L1425.22,879.01 L1436.86,875.09 L1444.83,871.75 L1457.30,864.99 L1462.32,861.67 L1468.52,857.02 L1475.78,850.71 L1480.70,845.70 L1489.32,835.10 L1493.91,828.12 L1496.98,822.76 L1500.93,814.84 L1504.40,806.20 L1506.26,800.55 L1508.11,794.23 L1509.96,786.26 L1512.01,773.62 L1513.45,756.31 L1513.65,749.99 L1513.31,666.75 L1513.00,665.99 L1512.48,665.54 L1510.63,665.17 L1423.71,664.37 L1421.55,664.81 L1420.94,665.51 L1420.64,667.04 L1421.03,752.34 L1420.26,765.72 L1418.32,775.44 L1416.49,780.49 L1414.56,784.53 L1411.05,789.91 L1407.28,794.07 L1402.90,797.72 L1398.18,800.54 L1393.81,802.48 L1388.43,804.15 L1382.39,805.22 L1377.70,805.80 L1369.99,805.98 L1363.62,805.57 L1354.91,804.17 L1349.87,802.66 L1345.91,801.03 L1342.46,799.20 L1337.89,795.98 L1333.74,791.93 L1330.86,788.22 L1327.22,781.84 L1325.40,777.47 L1323.67,771.42 L1322.16,760.70 L1321.83,754.34 L1321.54,663.34 L1319.96,529.67 L1318.08,431.01 L1317.15,397.00 L1317.21,389.65 L1318.26,377.28 L1320.11,368.24 L1321.86,362.21 L1323.83,356.84 L1325.78,352.80 L1329.75,347.08 L1334.14,342.69 L1338.80,339.36 L1343.19,337.27 L1348.57,335.53 L1355.30,334.47 L1362.35,334.23 L1371.40,335.18 L1377.44,336.59 L1382.15,338.05 L1387.19,340.44 L1390.98,342.67 L1395.60,346.22 L1399.63,350.16 L1402.66,353.88 L1404.82,357.13 L1408.89,364.83 L1411.04,370.14 L1412.87,376.23 L1415.06,386.68 L1416.16,397.30 L1416.62,406.32 L1418.13,479.93 L1418.67,481.64 L1420.11,482.42 L1508.65,485.92 L1509.88,485.80 L1510.65,485.39 L1511.19,483.93 L1510.09,424.01 L1509.77,412.35 L1508.80,398.04 L1507.37,385.39 L1505.02,370.74 L1501.06,353.11 L1496.96,340.47 L1490.66,324.16 L1482.65,307.69 L1479.38,302.22 L1475.08,295.90 L1464.71,282.25 L1460.57,277.27 L1450.38,266.42 L1446.33,262.63 L1436.63,254.65 L1424.95,246.67 L1414.50,240.98 L1411.18,239.70 L1407.51,237.74 L1404.18,236.61 L1400.19,234.70 L1396.20,233.52 L1392.21,231.90 L1374.58,227.33 L1368.94,226.28 L1356.29,224.65 L1341.99,223.49 L1326.69,223.77 L1317.06,224.84 L1309.76,226.06 L1306.76,226.98 L1303.45,227.52 L1301.14,228.55 L1297.47,229.62 L1289.18,233.25 L1281.88,237.25 L1273.53,242.99 L1267.57,247.96 L1260.30,255.17 L1254.38,262.57 L1246.19,274.54 L1240.89,284.18 L1237.30,291.83 L1234.00,300.14 L1230.47,310.45 L1226.87,323.43 L1224.28,335.41 L1222.70,345.39 L1220.03,370.70 L1219.47,381.34 L1219.41,392.33 L1222.22,530.66 L1223.49,642.00 L1224.06,746.66 L1224.86,765.97 L1226.68,780.26 L1230.26,796.23 L1234.30,808.52 L1239.55,820.49 L1245.28,830.45 L1248.45,835.10 L1253.64,841.74 L1261.29,850.05 L1267.99,856.02 L1273.56,860.30 L1283.54,866.82 L1289.18,869.91 L1296.49,873.35 L1306.46,877.08 L1312.77,879.03 L1326.75,882.44 L1339.05,884.61 L1346.35,885.26 L1391.65,885.24 Z M1155.45,877.81 L1156.07,877.14 L1156.26,876.29 L1155.75,678.67 L1154.93,585.34 L1151.92,413.01 L1148.42,282.01 L1146.28,217.07 L1145.99,216.22 L1145.48,215.69 L1143.27,215.12 L1072.98,210.46 L1050.41,209.44 L1049.24,209.98 L1048.96,210.46 L1048.83,211.68 L1051.53,303.64 L1051.87,307.64 L1054.04,394.99 L1056.13,510.33 L1057.20,594.00 L1057.99,703.67 L1058.05,876.59 L1058.34,877.32 L1058.86,877.80 L1060.71,878.17 L1153.95,878.16 L1155.45,877.81 Z M983.42,877.64 L983.86,877.14 L984.06,876.29 L983.77,739.67 L983.42,661.34 L981.88,507.01 L980.10,405.01 L978.29,322.34 L975.13,208.10 L974.70,207.21 L972.89,206.30 L962.98,205.67 L947.00,205.39 L879.18,205.40 L878.34,205.90 L878.32,207.66 L880.14,276.32 L883.30,439.99 L885.22,602.33 L885.83,723.67 L885.75,876.59 L886.00,877.23 L886.52,877.69 L888.37,878.05 L981.29,878.16 L983.42,877.64 Z M810.82,877.76 L811.57,877.11 L811.80,876.28 L811.12,628.34 L809.52,459.67 L807.63,343.34 L804.84,207.41 L804.16,205.70 L801.98,205.42 L786.35,205.77 L769.73,206.73 L725.68,207.64 L710.10,208.56 L708.50,209.28 L708.04,211.05 L709.50,281.66 L711.20,395.33 L712.80,547.33 L713.59,697.00 L713.54,876.55 L714.25,877.65 L715.72,878.05 L809.30,878.05 L810.82,877.76 Z M638.80,877.69 L639.36,877.12 L639.59,876.29 L639.39,873.01 L639.28,683.67 L639.01,605.34 L637.34,402.00 L634.86,215.71 L634.63,214.50 L634.24,213.98 L633.55,213.62 L631.99,213.44 L605.03,215.30 L550.04,221.09 L540.74,221.83 L538.84,222.35 L538.38,222.87 L538.12,223.73 L539.41,336.33 L541.02,553.66 L541.48,720.67 L541.37,876.25 L541.96,877.61 L543.40,878.07 L636.96,878.07 L638.80,877.69 Z M466.16,877.81 L466.99,877.18 L467.26,876.29 L467.04,873.68 L466.82,615.67 L465.15,299.34 L464.69,233.38 L464.31,231.83 L463.53,231.29 L461.69,231.19 L420.39,237.21 L392.06,240.61 L341.40,250.08 L328.44,252.24 L326.59,253.01 L325.75,254.15 L313.73,358.95 L308.60,401.38 L299.43,472.39 L287.02,563.06 L273.18,657.05 L272.56,663.06 L271.27,669.73 L269.03,686.73 L266.04,705.05 L265.13,713.42 L264.45,715.57 L263.40,716.39 L262.02,715.86 L261.29,713.75 L260.94,709.55 L256.07,678.73 L253.76,662.06 L252.40,654.73 L237.13,550.07 L236.00,544.06 L231.80,513.06 L230.47,505.73 L228.16,488.05 L221.45,442.39 L199.10,280.19 L198.49,279.62 L197.35,279.47 L168.09,285.31 L81.75,309.15 L77.74,309.82 L60.68,313.76 L60.25,316.04 L60.25,875.96 L60.66,878.03 L142.61,878.06 L144.08,877.65 L144.79,876.55 L144.59,496.67 L144.33,445.64 L144.62,443.40 L145.95,442.34 L147.32,443.06 L147.80,444.58 L150.00,461.94 L152.94,477.94 L155.31,494.94 L160.20,523.27 L162.58,539.60 L163.89,545.93 L167.50,568.28 L168.10,573.61 L171.06,589.89 L178.66,638.93 L181.60,654.93 L191.40,715.60 L202.71,783.26 L203.88,788.93 L206.20,804.26 L207.43,809.93 L208.06,815.47 L210.93,830.94 L211.58,836.61 L214.48,852.27 L216.88,868.27 L218.53,876.83 L219.24,877.78 L220.40,878.15 L298.63,878.06 L299.82,877.82 L300.64,877.10 L300.97,876.23 L306.86,839.59 L308.03,833.93 L310.41,818.26 L311.78,811.60 L314.02,796.60 L315.40,789.93 L317.70,774.60 L319.07,767.93 L321.43,751.93 L322.73,745.60 L323.20,741.28 L326.30,723.60 L328.61,707.78 L329.80,701.94 L330.43,696.61 L333.30,680.27 L339.21,641.27 L344.13,611.60 L362.12,489.94 L369.09,439.28 L370.05,430.28 L371.22,423.20 L371.72,422.30 L372.71,421.86 L373.70,422.55 L374.02,424.30 L374.42,617.67 L374.46,876.56 L375.08,877.67 L376.40,878.13 L464.96,878.07 L466.16,877.81 Z" fill="#e8e8e8" fill-rule="evenodd"/>
</svg>
