<?xml version="1.0" encoding="UTF-8"?>
<svg xmlns="http://www.w3.org/2000/svg" viewBox="0 165 2600 760">
<path d="M2544.74,916.32 L2589.30,916.24 L2590.77,915.98 L2591.07,915.54 L2590.93,687.88 L2590.54,687.64 L2588.98,687.50 L2521.35,687.50 L2520.14,687.60 L2519.68,687.91 L2489.67,841.40 L2488.21,850.11 L2487.84,850.96 L2487.00,851.36 L2486.18,850.97 L2485.76,850.12 L2484.27,841.07 L2454.29,687.89 L2453.85,687.57 L2452.98,687.47 L2384.38,687.46 L2383.59,687.67 L2383.19,688.74 L2383.17,914.96 L2383.35,915.77 L2384.42,916.27 L2424.95,916.26 L2426.08,915.98 L2426.35,915.55 L2426.22,744.64 L2426.39,743.43 L2427.45,742.76 L2428.41,744.17 L2464.36,915.48 L2464.88,916.06 L2465.72,916.27 L2504.92,916.31 L2505.64,916.02 L2506.22,914.87 L2541.98,744.23 L2542.34,743.21 L2543.46,742.64 L2544.10,743.53 L2544.17,744.99 L2544.03,914.95 L2544.34,916.15 L2544.74,916.32 Z M2283.32,919.24 L2287.29,918.97 L2298.59,917.31 L2307.88,915.01 L2316.84,911.74 L2324.79,907.52 L2330.75,903.23 L2334.05,900.25 L2337.36,896.67 L2340.28,892.78 L2342.29,889.48 L2345.43,882.52 L2346.50,879.23 L2347.79,873.27 L2348.72,863.31 L2348.73,741.68 L2348.42,735.37 L2347.73,730.07 L2346.30,723.78 L2343.34,716.17 L2341.15,712.22 L2337.25,706.92 L2333.19,702.62 L2328.43,698.56 L2323.50,695.35 L2316.84,691.95 L2308.55,688.85 L2301.25,686.95 L2289.56,684.73 L2279.66,684.24 L2257.71,684.52 L2244.42,686.96 L2234.49,689.71 L2225.88,693.36 L2218.56,697.58 L2212.42,702.62 L2206.52,709.24 L2202.62,715.51 L2199.42,723.46 L2198.33,727.42 L2197.66,731.38 L2196.96,740.35 L2196.96,862.32 L2197.28,869.29 L2198.34,876.25 L2199.39,880.21 L2201.65,886.17 L2204.67,891.75 L2208.31,896.74 L2212.40,901.04 L2217.56,905.34 L2222.20,908.34 L2228.83,911.74 L2233.80,913.72 L2238.44,915.20 L2247.08,917.31 L2258.38,918.98 L2262.78,919.27 L2283.32,919.24 Z M2272.66,887.42 L2265.95,886.98 L2261.90,886.20 L2258.17,884.89 L2254.43,882.72 L2251.32,879.93 L2248.98,876.53 L2247.68,873.46 L2246.73,869.39 L2246.45,864.68 L2246.45,739.32 L2246.65,734.94 L2247.94,729.53 L2249.98,725.44 L2253.07,722.03 L2256.13,719.86 L2260.54,717.87 L2265.61,716.73 L2273.00,716.25 L2279.72,716.68 L2284.78,717.76 L2287.92,718.97 L2291.23,720.95 L2293.68,723.06 L2296.10,726.13 L2298.16,730.88 L2298.98,734.95 L2299.29,739.99 L2299.29,863.34 L2299.10,868.05 L2298.17,872.79 L2296.01,877.69 L2292.62,881.63 L2289.53,883.84 L2284.45,886.04 L2278.71,887.10 L2272.66,887.42 Z M2105.98,919.22 L2109.83,918.94 L2120.92,917.27 L2129.88,914.99 L2138.50,911.77 L2144.79,908.46 L2150.73,904.35 L2155.38,900.15 L2160.15,894.43 L2163.01,889.81 L2165.18,885.19 L2167.28,878.58 L2168.34,873.28 L2169.04,863.32 L2169.14,832.43 L2168.75,831.66 L2167.93,831.37 L2123.38,831.36 L2122.61,831.53 L2122.18,832.43 L2122.07,870.05 L2121.05,874.39 L2119.98,876.85 L2118.78,878.90 L2117.04,880.96 L2113.54,883.68 L2108.46,885.98 L2103.38,887.02 L2096.33,887.41 L2090.28,887.04 L2084.88,885.93 L2080.12,883.81 L2076.04,880.50 L2073.88,877.54 L2072.62,874.81 L2071.60,871.22 L2071.31,867.01 L2071.30,737.99 L2071.60,732.83 L2072.62,729.03 L2074.83,724.76 L2078.56,721.01 L2083.52,718.28 L2088.60,716.89 L2096.33,716.26 L2104.06,716.75 L2109.17,717.95 L2111.61,718.98 L2114.45,720.67 L2116.92,722.71 L2118.95,725.11 L2121.05,729.48 L2121.88,732.94 L2122.26,738.65 L2122.18,763.23 L2122.59,763.94 L2123.37,764.10 L2167.62,764.10 L2168.75,763.83 L2169.14,763.22 L2169.04,740.68 L2168.38,730.72 L2167.27,725.10 L2165.16,718.48 L2163.04,713.86 L2160.12,709.23 L2156.36,704.61 L2151.08,699.56 L2145.45,695.58 L2141.48,693.36 L2136.18,690.92 L2129.88,688.70 L2121.25,686.49 L2111.29,684.64 L2101.99,684.24 L2081.04,684.46 L2069.42,686.52 L2060.12,688.92 L2051.50,692.28 L2047.45,694.35 L2042.57,697.38 L2036.61,702.34 L2031.39,708.24 L2027.57,714.19 L2024.40,721.79 L2022.44,730.73 L2021.66,740.35 L2021.67,863.32 L2022.20,871.29 L2023.39,878.06 L2024.48,882.20 L2027.41,889.15 L2030.38,894.11 L2033.63,898.25 L2038.60,903.15 L2042.90,906.47 L2047.86,909.56 L2052.16,911.72 L2058.13,914.11 L2070.08,917.31 L2081.04,918.96 L2085.52,919.27 L2105.98,919.22 Z M1974.27,912.99 L1974.25,867.38 L1974.00,866.42 L1972.94,866.09 L1927.72,866.10 L1926.90,866.33 L1926.54,867.40 L1926.47,912.91 L1926.61,913.19 L1927.71,913.43 L1973.30,913.43 L1974.08,913.28 L1974.27,912.99 Z M1794.32,918.24 L1798.56,917.94 L1802.47,916.94 L1813.26,915.29 L1828.89,911.62 L1842.86,906.95 L1855.16,901.49 L1864.46,896.36 L1870.10,892.72 L1882.07,883.44 L1886.72,879.05 L1891.70,873.76 L1899.01,865.04 L1907.51,851.80 L1911.22,844.83 L1915.00,836.19 L1918.95,824.98 L1919.76,821.22 L1920.81,818.22 L1922.86,809.59 L1923.61,804.14 L1924.94,799.92 L1925.43,784.99 L1925.42,746.34 L1924.94,732.65 L1923.63,728.42 L1922.73,722.41 L1918.74,706.45 L1914.84,694.81 L1909.06,681.17 L1903.32,670.20 L1898.52,662.22 L1890.68,650.92 L1882.23,639.92 L1867.38,623.38 L1836.44,593.29 L1821.95,580.30 L1787.74,551.35 L1775.27,539.96 L1764.05,528.95 L1756.70,520.92 L1748.04,510.58 L1742.29,502.90 L1736.68,494.55 L1728.92,481.18 L1724.54,471.48 L1720.50,459.45 L1718.47,451.41 L1716.26,437.71 L1715.56,428.01 L1715.58,418.65 L1717.05,404.58 L1720.49,393.86 L1722.79,388.81 L1725.79,384.09 L1728.43,381.05 L1733.10,377.16 L1738.83,373.82 L1743.55,372.10 L1748.61,370.95 L1750.99,370.77 L1761.37,371.04 L1768.40,372.04 L1777.11,373.93 L1783.81,376.26 L1791.50,379.64 L1796.22,382.34 L1803.60,387.75 L1807.97,392.38 L1810.67,395.86 L1814.71,402.82 L1818.97,413.54 L1821.15,421.93 L1822.49,433.97 L1823.17,450.66 L1823.20,469.60 L1823.58,470.80 L1824.22,471.50 L1826.75,472.32 L1913.38,481.01 L1921.32,482.04 L1922.47,481.83 L1923.14,481.14 L1923.39,479.96 L1923.02,456.35 L1922.31,443.37 L1920.53,428.73 L1918.31,417.09 L1916.33,409.11 L1912.18,396.14 L1904.02,377.85 L1900.32,371.24 L1895.67,363.93 L1891.35,357.91 L1884.32,349.26 L1875.38,339.31 L1870.72,334.60 L1860.74,325.52 L1851.76,318.46 L1844.12,313.15 L1834.14,307.16 L1824.45,302.02 L1817.17,298.46 L1808.86,294.87 L1804.36,293.38 L1796.19,290.04 L1782.55,285.31 L1770.23,281.74 L1750.92,277.46 L1743.61,276.21 L1728.63,274.27 L1718.32,273.57 L1710.01,273.51 L1703.03,273.76 L1697.73,274.45 L1687.76,276.37 L1680.13,278.64 L1672.82,281.38 L1669.21,283.02 L1664.88,285.52 L1654.58,292.46 L1650.61,295.95 L1641.30,305.99 L1638.07,309.91 L1631.68,319.40 L1625.94,329.84 L1623.95,334.81 L1618.69,350.12 L1615.28,363.09 L1613.32,373.72 L1610.97,396.03 L1610.54,404.68 L1610.44,416.00 L1611.16,438.97 L1612.05,448.29 L1613.72,460.27 L1616.30,473.58 L1618.57,482.89 L1622.60,495.87 L1628.70,511.79 L1632.69,520.45 L1636.58,528.14 L1644.19,540.78 L1656.12,558.09 L1671.40,576.40 L1682.98,589.06 L1694.94,600.95 L1710.49,615.03 L1725.92,628.36 L1755.10,652.70 L1767.61,664.41 L1782.92,680.40 L1792.97,692.10 L1798.66,699.14 L1804.96,708.46 L1810.52,718.49 L1814.56,728.20 L1818.41,741.24 L1820.44,751.61 L1821.74,763.97 L1822.04,771.00 L1821.86,779.69 L1820.70,790.73 L1818.62,799.78 L1816.78,805.15 L1814.40,810.19 L1812.75,812.89 L1808.84,817.93 L1805.93,820.78 L1798.54,826.15 L1791.48,829.41 L1785.76,831.18 L1773.92,833.07 L1767.67,833.29 L1760.29,833.04 L1748.05,831.06 L1742.86,829.45 L1738.16,827.42 L1733.78,824.95 L1729.07,821.51 L1725.54,817.93 L1721.66,812.82 L1717.76,805.84 L1715.68,800.46 L1713.48,792.41 L1712.18,781.36 L1711.94,775.34 L1711.97,733.71 L1711.79,732.84 L1711.36,732.32 L1710.55,731.90 L1709.31,731.75 L1615.37,731.31 L1614.14,731.52 L1613.38,731.95 L1612.73,733.42 L1613.34,782.65 L1614.14,791.62 L1615.62,802.94 L1617.65,813.58 L1621.63,828.55 L1625.57,839.52 L1629.39,847.82 L1633.35,855.22 L1638.96,864.11 L1642.40,868.75 L1651.96,879.72 L1660.59,887.46 L1672.55,896.15 L1678.86,899.86 L1686.23,903.64 L1694.48,907.09 L1702.46,909.95 L1715.09,913.52 L1736.73,917.75 L1741.03,918.20 L1750.00,918.43 L1794.32,918.24 Z M1436.65,918.23 L1440.53,917.94 L1449.26,916.03 L1455.59,915.16 L1470.89,911.51 L1484.85,906.67 L1495.82,901.71 L1502.65,897.99 L1513.43,890.87 L1521.40,884.47 L1527.05,879.22 L1533.54,872.07 L1539.60,864.43 L1544.41,857.12 L1547.84,851.15 L1553.92,838.18 L1557.99,826.88 L1559.71,820.90 L1561.77,811.92 L1563.95,798.28 L1565.41,780.98 L1565.67,773.33 L1565.31,684.07 L1565.02,683.22 L1564.47,682.67 L1562.29,682.20 L1469.04,681.24 L1466.89,681.75 L1466.25,682.51 L1465.93,684.04 L1466.39,775.68 L1465.55,790.05 L1463.50,800.11 L1461.50,805.82 L1459.22,810.53 L1455.65,815.91 L1451.28,820.71 L1447.23,824.01 L1442.86,826.78 L1437.47,829.22 L1431.43,831.06 L1424.39,832.30 L1418.69,832.89 L1410.32,832.97 L1404.28,832.50 L1395.58,831.04 L1390.20,829.44 L1385.49,827.47 L1382.12,825.63 L1376.74,821.73 L1373.26,818.26 L1369.44,813.22 L1366.21,807.51 L1364.12,802.47 L1362.26,796.08 L1360.51,784.04 L1360.23,777.68 L1359.89,677.34 L1358.02,514.34 L1356.22,422.01 L1355.34,391.00 L1355.41,382.65 L1356.48,369.94 L1358.42,360.24 L1360.52,352.87 L1364.15,343.82 L1367.03,339.11 L1369.37,336.11 L1374.75,330.89 L1378.80,328.14 L1382.85,326.23 L1388.58,324.33 L1397.31,323.22 L1405.37,323.42 L1414.42,324.86 L1423.48,327.58 L1429.87,330.83 L1434.57,333.85 L1439.94,338.32 L1443.31,341.89 L1448.43,349.12 L1451.14,353.81 L1453.04,357.84 L1455.43,363.87 L1457.43,370.57 L1459.71,381.61 L1460.90,393.30 L1461.36,401.32 L1463.10,482.93 L1463.67,484.72 L1465.44,485.63 L1518.35,488.12 L1560.00,490.60 L1561.22,490.51 L1562.19,490.03 L1562.61,489.34 L1562.72,488.32 L1561.83,456.34 L1561.29,418.68 L1560.66,405.03 L1559.86,395.71 L1558.22,382.39 L1555.92,368.41 L1551.38,348.44 L1549.10,340.79 L1545.00,329.14 L1538.62,313.16 L1531.60,298.86 L1528.08,292.88 L1523.16,285.56 L1511.77,269.91 L1508.01,265.26 L1498.23,253.94 L1492.75,248.63 L1481.75,238.94 L1474.44,233.48 L1465.12,227.25 L1458.81,223.48 L1455.57,222.02 L1451.82,219.81 L1447.83,218.20 L1443.83,215.96 L1434.29,212.04 L1416.23,206.37 L1410.58,205.02 L1395.94,202.39 L1381.30,200.56 L1366.67,200.09 L1355.38,200.84 L1347.40,201.99 L1340.44,203.47 L1330.15,207.20 L1321.85,211.14 L1317.88,213.47 L1308.58,219.89 L1301.94,225.49 L1294.30,233.42 L1288.68,240.57 L1280.33,253.20 L1273.93,265.18 L1270.28,273.16 L1266.91,281.80 L1262.96,293.78 L1258.87,308.76 L1255.95,322.73 L1253.41,341.38 L1251.53,360.70 L1250.94,371.35 L1250.84,384.66 L1253.09,504.99 L1254.29,597.33 L1255.38,769.33 L1255.83,784.64 L1256.58,793.29 L1258.30,805.93 L1262.37,823.56 L1266.06,834.87 L1268.26,840.51 L1274.02,852.35 L1278.11,859.11 L1284.89,868.75 L1293.95,878.93 L1301.92,886.28 L1313.14,894.67 L1325.23,901.64 L1337.15,906.98 L1350.78,911.54 L1365.75,915.18 L1376.55,916.94 L1379.08,917.69 L1385.33,918.27 L1436.65,918.23 Z M1182.11,910.08 L1182.63,909.48 L1182.86,908.31 L1182.64,905.68 L1182.44,723.67 L1181.54,596.34 L1178.67,405.34 L1173.63,187.06 L1173.31,185.98 L1172.77,185.33 L1170.26,184.56 L1096.30,177.92 L1071.42,176.56 L1070.00,177.27 L1069.56,179.04 L1070.98,235.99 L1071.39,269.99 L1072.58,308.32 L1075.86,513.66 L1077.40,682.66 L1077.60,908.92 L1077.96,909.76 L1078.51,910.23 L1080.37,910.58 L1180.28,910.56 L1182.11,910.08 Z M997.69,910.02 L998.28,909.18 L998.40,908.32 L998.19,904.68 L998.11,762.67 L997.83,684.34 L996.55,523.34 L994.93,397.67 L993.16,289.67 L990.85,175.08 L990.35,173.84 L988.87,172.96 L976.53,171.73 L960.00,171.51 L889.09,172.29 L887.59,172.95 L887.27,174.70 L888.62,251.66 L891.67,482.33 L893.05,665.67 L893.12,908.87 L893.90,910.01 L896.04,910.46 L995.64,910.57 L996.88,910.42 L997.69,910.02 Z M812.82,910.15 L813.61,909.45 L813.86,908.30 L813.63,905.01 L813.30,653.67 L812.00,464.34 L808.51,176.06 L808.14,174.87 L807.77,174.47 L806.92,174.13 L805.34,174.06 L771.02,176.37 L726.36,178.51 L707.08,180.38 L706.02,180.69 L705.34,181.23 L704.77,183.38 L707.13,417.33 L708.50,630.33 L708.59,908.89 L709.26,909.96 L711.05,910.44 L810.97,910.45 L812.82,910.15 Z M628.76,909.98 L629.29,909.32 L629.47,908.31 L629.21,904.68 L628.94,618.33 L626.69,246.34 L626.26,191.41 L625.68,189.85 L624.87,189.40 L623.66,189.23 L606.05,190.87 L593.73,192.61 L535.39,202.17 L525.10,203.54 L523.00,204.32 L522.24,205.76 L524.11,604.67 L524.36,843.67 L524.16,908.27 L524.67,909.87 L525.47,910.38 L526.36,910.50 L626.62,910.49 L628.76,909.98 Z M9.21,910.49 L96.94,910.50 L98.69,909.99 L99.36,908.89 L99.09,554.67 L98.73,457.32 L98.94,453.83 L99.77,452.72 L100.72,452.52 L101.73,453.04 L102.39,454.56 L104.72,471.27 L107.97,488.60 L110.56,506.94 L115.73,535.27 L118.24,551.26 L119.79,558.59 L123.53,581.61 L124.25,587.61 L127.40,604.60 L129.86,620.93 L131.26,627.61 L131.74,632.28 L135.05,650.61 L135.68,655.93 L136.89,661.60 L137.55,666.94 L142.82,696.94 L143.52,702.61 L146.76,720.60 L149.36,737.26 L150.61,743.27 L151.43,749.61 L154.55,766.93 L161.37,809.27 L166.52,837.94 L167.01,842.61 L168.38,849.27 L168.90,853.94 L170.20,859.93 L170.93,866.27 L174.10,883.61 L174.72,888.94 L178.38,909.16 L179.23,910.26 L180.39,910.58 L263.64,910.51 L265.49,910.24 L266.42,909.43 L266.75,908.57 L267.18,904.61 L274.27,863.43 L275.09,856.93 L276.29,851.27 L276.90,845.94 L278.30,839.26 L280.74,823.26 L282.27,815.92 L284.61,800.16 L286.20,792.26 L288.78,774.60 L289.94,769.10 L292.37,752.60 L293.92,744.61 L294.53,739.27 L295.66,733.94 L296.23,728.94 L297.64,722.26 L300.02,705.93 L301.31,699.60 L307.74,656.94 L313.12,625.27 L332.37,496.61 L340.99,433.27 L342.14,426.21 L342.69,425.06 L343.70,424.51 L344.93,425.45 L345.17,426.97 L345.39,908.90 L345.95,910.02 L347.41,910.57 L442.29,910.50 L443.82,910.17 L444.65,909.45 L444.90,908.31 L444.66,906.02 L444.57,658.67 L443.30,220.37 L443.08,219.19 L442.46,218.52 L441.31,218.29 L439.73,218.45 L395.07,227.26 L365.75,232.40 L296.47,249.43 L294.61,250.32 L293.72,251.49 L287.68,303.38 L282.36,346.72 L277.32,384.72 L274.91,405.72 L257.43,535.39 L247.61,604.06 L236.88,675.05 L236.30,680.72 L234.91,688.06 L232.33,707.07 L231.15,713.06 L230.60,718.72 L229.22,726.06 L228.34,734.41 L227.69,736.57 L226.39,737.59 L225.01,736.96 L224.29,735.09 L223.85,730.05 L214.71,672.39 L212.20,653.39 L202.77,594.06 L198.32,561.73 L195.03,541.39 L192.60,523.40 L191.12,515.40 L178.88,430.06 L175.60,409.73 L171.28,378.73 L169.86,370.73 L165.46,338.73 L164.07,331.40 L157.87,288.42 L157.51,287.23 L156.85,286.70 L155.70,286.64 L128.44,293.34 L103.46,301.20 L63.49,314.38 L31.44,323.95 L8.85,329.30 L8.57,329.54 L8.25,332.03 L8.60,908.64 L8.75,909.85 L9.21,910.49 Z" fill="#e8e8e8" fill-rule="evenodd"/>
</svg>
